<svg width="1500" height="600" viewBox="0 0 1500 600" xmlns="http://www.w3.org/2000/svg">
  <rect width="1500" height="600" fill="#F7F0EA"/>
  <line x1="0" y1="150" x2="1500" y2="150" stroke="#C46A48" stroke-width="0.5" opacity="0.08"/>
  <line x1="0" y1="300" x2="1500" y2="300" stroke="#C46A48" stroke-width="0.5" opacity="0.08"/>
  <line x1="0" y1="450" x2="1500" y2="450" stroke="#C46A48" stroke-width="0.5" opacity="0.08"/>
  <line x1="375" y1="0" x2="375" y2="600" stroke="#C46A48" stroke-width="0.5" opacity="0.05"/>
  <line x1="750" y1="0" x2="750" y2="600" stroke="#C46A48" stroke-width="0.5" opacity="0.05"/>
  <line x1="1125" y1="0" x2="1125" y2="600" stroke="#C46A48" stroke-width="0.5" opacity="0.05"/>
  <line x1="520" y1="300" x2="608" y2="300" stroke="#C46A48" stroke-width="2.5" stroke-linecap="round" opacity="0.3"/>
  <path d="M616 300 Q629 252 642 300 Q655 348 668 300 Q681 252 694 300 Q707 348 720 300 Q733 252 746 300 Q759 348 772 300 Q785 252 798 300 Q811 348 824 300 Q837 252 850 300 Q863 348 876 300 Q889 252 902 300" fill="none" stroke="#C46A48" stroke-width="5" stroke-linecap="round"/>
  <line x1="910" y1="300" x2="998" y2="300" stroke="#C46A48" stroke-width="2.5" stroke-linecap="round" opacity="0.3"/>
  <text x="759" y="392" font-family="Georgia, 'Times New Roman', serif" font-size="88" font-weight="700" fill="#2D2D2D" text-anchor="middle" letter-spacing="-2">Verbo</text>
  <text x="759" y="434" font-family="Arial, Helvetica, sans-serif" font-size="22" font-weight="400" fill="#702F38" text-anchor="middle" letter-spacing="15">MENTORIA</text>
  <line x1="548" y1="418" x2="718" y2="418" stroke="#C46A48" stroke-width="0.8" opacity="0.22"/>
  <line x1="800" y1="418" x2="970" y2="418" stroke="#C46A48" stroke-width="0.8" opacity="0.22"/>
  <text x="759" y="480" font-family="Georgia, 'Times New Roman', serif" font-size="20" font-weight="400" fill="#2D2D2D" text-anchor="middle" font-style="italic" opacity="0.38" letter-spacing="1.5">o verbo que move.</text>
</svg>
